<mxfile host="app.diagrams.net" modified="2024-02-24T04:57:09.282Z" agent="Mozilla/5.0 (Windows NT 10.0; Win64; x64) AppleWebKit/537.36 (KHTML, like Gecko) Chrome/121.0.0.0 Safari/537.36 Edg/121.0.0.0" version="23.1.6" etag="h2RDJp8ldfhZz4pKj2oy" type="github">
  <diagram name="Page-1" id="f6EYTW2Sr0E71eAWgeKF">
    <mxGraphModel>
      <root>
        <mxCell id="0" />
        <mxCell id="1" parent="0" />
      </root>
    </mxGraphModel>
  </diagram>
</mxfile>
